<mxfile host="app.diagrams.net" modified="2024-03-01T09:23:20.330Z" agent="Mozilla/5.0 (Macintosh; Intel Mac OS X 10_15_7) AppleWebKit/537.36 (KHTML, like Gecko) Chrome/121.0.0.0 Safari/537.36" etag="EgkKGYsQKccq9ryZR6co" version="23.1.5" type="device">
  <diagram name="Page-1" id="qHDnPnX01NTbH_wZon7P">
    <mxGraphModel dx="3781" dy="1121" grid="1" gridSize="10" guides="1" tooltips="1" connect="1" arrows="1" fold="1" page="1" pageScale="1" pageWidth="827" pageHeight="1169" math="0" shadow="0">
      <root>
        <mxCell id="0" />
        <mxCell id="1" parent="0" />
        <mxCell id="AObpnqGnu0cfo2hoO3qj-3" value="" style="rounded=0;whiteSpace=wrap;html=1;" vertex="1" parent="1">
          <mxGeometry x="-200" y="30" width="710" height="470" as="geometry" />
        </mxCell>
        <mxCell id="AObpnqGnu0cfo2hoO3qj-1" value="cache-fn" style="outlineConnect=0;dashed=0;verticalLabelPosition=bottom;verticalAlign=top;align=center;html=1;shape=mxgraph.aws3.lambda_function;fillColor=#5294CF;gradientColor=none;" vertex="1" parent="1">
          <mxGeometry y="360" width="60" height="63" as="geometry" />
        </mxCell>
        <mxCell id="AObpnqGnu0cfo2hoO3qj-2" value="hana-fn" style="outlineConnect=0;dashed=0;verticalLabelPosition=bottom;verticalAlign=top;align=center;html=1;shape=mxgraph.aws3.lambda_function;fillColor=#5294CF;gradientColor=none;" vertex="1" parent="1">
          <mxGeometry x="180" y="360" width="60" height="63" as="geometry" />
        </mxCell>
        <mxCell id="AObpnqGnu0cfo2hoO3qj-4" value="" style="sketch=0;pointerEvents=1;shadow=0;dashed=0;html=1;strokeColor=none;fillColor=#DF8C42;labelPosition=center;verticalLabelPosition=bottom;verticalAlign=top;align=center;outlineConnect=0;shape=mxgraph.veeam2.sap_hana_db;" vertex="1" parent="1">
          <mxGeometry x="600" y="101.5" width="190" height="177" as="geometry" />
        </mxCell>
        <mxCell id="AObpnqGnu0cfo2hoO3qj-5" value="" style="aspect=fixed;sketch=0;html=1;dashed=0;whitespace=wrap;fillColor=#ffe6cc;strokeColor=#d79b00;points=[[0.005,0.63,0],[0.1,0.2,0],[0.9,0.2,0],[0.5,0,0],[0.995,0.63,0],[0.72,0.99,0],[0.5,1,0],[0.28,0.99,0]];shape=mxgraph.kubernetes.icon2;prIcon=secret" vertex="1" parent="1">
          <mxGeometry x="315" y="270" width="50" height="48" as="geometry" />
        </mxCell>
        <mxCell id="AObpnqGnu0cfo2hoO3qj-6" value="serviceInstance CR&lt;br&gt;offering: hana" style="rounded=1;whiteSpace=wrap;html=1;" vertex="1" parent="1">
          <mxGeometry x="360" y="60" width="120" height="60" as="geometry" />
        </mxCell>
        <mxCell id="AObpnqGnu0cfo2hoO3qj-7" value="serviceBinding&lt;div&gt;CR&lt;/div&gt;" style="rounded=1;whiteSpace=wrap;html=1;" vertex="1" parent="1">
          <mxGeometry x="220" y="60" width="120" height="60" as="geometry" />
        </mxCell>
        <mxCell id="AObpnqGnu0cfo2hoO3qj-9" value="" style="edgeStyle=orthogonalEdgeStyle;rounded=0;orthogonalLoop=1;jettySize=auto;html=1;" edge="1" parent="1" source="AObpnqGnu0cfo2hoO3qj-8" target="AObpnqGnu0cfo2hoO3qj-5">
          <mxGeometry relative="1" as="geometry" />
        </mxCell>
        <mxCell id="AObpnqGnu0cfo2hoO3qj-10" value="reconciles" style="edgeLabel;html=1;align=center;verticalAlign=middle;resizable=0;points=[];" vertex="1" connectable="0" parent="AObpnqGnu0cfo2hoO3qj-9">
          <mxGeometry x="-0.1" y="-1" relative="1" as="geometry">
            <mxPoint as="offset" />
          </mxGeometry>
        </mxCell>
        <mxCell id="AObpnqGnu0cfo2hoO3qj-11" style="edgeStyle=orthogonalEdgeStyle;rounded=0;orthogonalLoop=1;jettySize=auto;html=1;" edge="1" parent="1" source="AObpnqGnu0cfo2hoO3qj-8" target="AObpnqGnu0cfo2hoO3qj-7">
          <mxGeometry relative="1" as="geometry" />
        </mxCell>
        <mxCell id="AObpnqGnu0cfo2hoO3qj-12" style="edgeStyle=orthogonalEdgeStyle;rounded=0;orthogonalLoop=1;jettySize=auto;html=1;entryX=0.5;entryY=1;entryDx=0;entryDy=0;" edge="1" parent="1" source="AObpnqGnu0cfo2hoO3qj-8" target="AObpnqGnu0cfo2hoO3qj-6">
          <mxGeometry relative="1" as="geometry" />
        </mxCell>
        <mxCell id="AObpnqGnu0cfo2hoO3qj-13" value="watches" style="edgeLabel;html=1;align=center;verticalAlign=middle;resizable=0;points=[];" vertex="1" connectable="0" parent="AObpnqGnu0cfo2hoO3qj-12">
          <mxGeometry x="-0.7667" y="2" relative="1" as="geometry">
            <mxPoint as="offset" />
          </mxGeometry>
        </mxCell>
        <mxCell id="AObpnqGnu0cfo2hoO3qj-15" style="edgeStyle=orthogonalEdgeStyle;rounded=0;orthogonalLoop=1;jettySize=auto;html=1;" edge="1" parent="1" source="AObpnqGnu0cfo2hoO3qj-8" target="AObpnqGnu0cfo2hoO3qj-4">
          <mxGeometry relative="1" as="geometry" />
        </mxCell>
        <mxCell id="AObpnqGnu0cfo2hoO3qj-16" value="provisions" style="edgeLabel;html=1;align=center;verticalAlign=middle;resizable=0;points=[];" vertex="1" connectable="0" parent="AObpnqGnu0cfo2hoO3qj-15">
          <mxGeometry x="-0.31" y="-1" relative="1" as="geometry">
            <mxPoint as="offset" />
          </mxGeometry>
        </mxCell>
        <mxCell id="AObpnqGnu0cfo2hoO3qj-8" value="BTP Manager" style="rounded=1;whiteSpace=wrap;html=1;fillColor=#dae8fc;strokeColor=#6c8ebf;" vertex="1" parent="1">
          <mxGeometry x="280" y="160" width="120" height="60" as="geometry" />
        </mxCell>
        <mxCell id="AObpnqGnu0cfo2hoO3qj-27" style="edgeStyle=orthogonalEdgeStyle;rounded=0;orthogonalLoop=1;jettySize=auto;html=1;" edge="1" parent="1" source="AObpnqGnu0cfo2hoO3qj-14" target="AObpnqGnu0cfo2hoO3qj-1">
          <mxGeometry relative="1" as="geometry">
            <Array as="points">
              <mxPoint x="100" y="320" />
              <mxPoint x="30" y="320" />
            </Array>
          </mxGeometry>
        </mxCell>
        <mxCell id="AObpnqGnu0cfo2hoO3qj-14" value="Serverless" style="rounded=1;whiteSpace=wrap;html=1;fillColor=#dae8fc;strokeColor=#6c8ebf;" vertex="1" parent="1">
          <mxGeometry x="40" y="160" width="120" height="60" as="geometry" />
        </mxCell>
        <mxCell id="AObpnqGnu0cfo2hoO3qj-21" value="" style="rounded=1;whiteSpace=wrap;html=1;" vertex="1" parent="1">
          <mxGeometry x="50" y="70" width="120" height="60" as="geometry" />
        </mxCell>
        <mxCell id="AObpnqGnu0cfo2hoO3qj-22" value="&lt;div&gt;function CRs&lt;/div&gt;" style="rounded=1;whiteSpace=wrap;html=1;" vertex="1" parent="1">
          <mxGeometry x="30" y="60" width="120" height="60" as="geometry" />
        </mxCell>
        <mxCell id="AObpnqGnu0cfo2hoO3qj-23" style="edgeStyle=orthogonalEdgeStyle;rounded=0;orthogonalLoop=1;jettySize=auto;html=1;exitX=0.5;exitY=0;exitDx=0;exitDy=0;entryX=0.4;entryY=1.017;entryDx=0;entryDy=0;entryPerimeter=0;" edge="1" parent="1" source="AObpnqGnu0cfo2hoO3qj-14" target="AObpnqGnu0cfo2hoO3qj-21">
          <mxGeometry relative="1" as="geometry" />
        </mxCell>
        <mxCell id="AObpnqGnu0cfo2hoO3qj-24" value="watches" style="edgeLabel;html=1;align=center;verticalAlign=middle;resizable=0;points=[];" vertex="1" connectable="0" parent="AObpnqGnu0cfo2hoO3qj-23">
          <mxGeometry x="-0.0316" relative="1" as="geometry">
            <mxPoint as="offset" />
          </mxGeometry>
        </mxCell>
        <mxCell id="AObpnqGnu0cfo2hoO3qj-25" style="edgeStyle=orthogonalEdgeStyle;rounded=0;orthogonalLoop=1;jettySize=auto;html=1;entryX=0.005;entryY=0.63;entryDx=0;entryDy=0;entryPerimeter=0;" edge="1" parent="1" source="AObpnqGnu0cfo2hoO3qj-2" target="AObpnqGnu0cfo2hoO3qj-5">
          <mxGeometry relative="1" as="geometry">
            <Array as="points">
              <mxPoint x="210" y="300" />
            </Array>
          </mxGeometry>
        </mxCell>
        <mxCell id="AObpnqGnu0cfo2hoO3qj-26" value="reads mounted" style="edgeLabel;html=1;align=center;verticalAlign=middle;resizable=0;points=[];" vertex="1" connectable="0" parent="AObpnqGnu0cfo2hoO3qj-25">
          <mxGeometry x="-0.0074" y="4" relative="1" as="geometry">
            <mxPoint as="offset" />
          </mxGeometry>
        </mxCell>
        <mxCell id="AObpnqGnu0cfo2hoO3qj-28" style="edgeStyle=orthogonalEdgeStyle;rounded=0;orthogonalLoop=1;jettySize=auto;html=1;entryX=0.145;entryY=0.145;entryDx=0;entryDy=0;entryPerimeter=0;" edge="1" parent="1" source="AObpnqGnu0cfo2hoO3qj-14" target="AObpnqGnu0cfo2hoO3qj-2">
          <mxGeometry relative="1" as="geometry">
            <Array as="points">
              <mxPoint x="100" y="320" />
              <mxPoint x="150" y="320" />
              <mxPoint x="150" y="369" />
            </Array>
          </mxGeometry>
        </mxCell>
        <mxCell id="AObpnqGnu0cfo2hoO3qj-29" value="reconciles" style="edgeLabel;html=1;align=center;verticalAlign=middle;resizable=0;points=[];" vertex="1" connectable="0" parent="AObpnqGnu0cfo2hoO3qj-28">
          <mxGeometry x="-0.6749" y="-1" relative="1" as="geometry">
            <mxPoint as="offset" />
          </mxGeometry>
        </mxCell>
        <mxCell id="AObpnqGnu0cfo2hoO3qj-32" value="" style="aspect=fixed;sketch=0;html=1;dashed=0;whitespace=wrap;fillColor=#2875E2;strokeColor=#ffffff;points=[[0.005,0.63,0],[0.1,0.2,0],[0.9,0.2,0],[0.5,0,0],[0.995,0.63,0],[0.72,0.99,0],[0.5,1,0],[0.28,0.99,0]];shape=mxgraph.kubernetes.icon2;kubernetesLabel=1;prIcon=api" vertex="1" parent="1">
          <mxGeometry x="-126.46000000000001" y="356.5" width="72.92" height="70" as="geometry" />
        </mxCell>
        <mxCell id="AObpnqGnu0cfo2hoO3qj-34" style="edgeStyle=orthogonalEdgeStyle;rounded=0;orthogonalLoop=1;jettySize=auto;html=1;" edge="1" parent="1" source="AObpnqGnu0cfo2hoO3qj-33" target="AObpnqGnu0cfo2hoO3qj-32">
          <mxGeometry relative="1" as="geometry" />
        </mxCell>
        <mxCell id="AObpnqGnu0cfo2hoO3qj-35" value="reconciles" style="edgeLabel;html=1;align=center;verticalAlign=middle;resizable=0;points=[];" vertex="1" connectable="0" parent="AObpnqGnu0cfo2hoO3qj-34">
          <mxGeometry x="-0.544" y="-3" relative="1" as="geometry">
            <mxPoint as="offset" />
          </mxGeometry>
        </mxCell>
        <mxCell id="AObpnqGnu0cfo2hoO3qj-33" value="API Gateway" style="rounded=1;whiteSpace=wrap;html=1;fillColor=#dae8fc;strokeColor=#6c8ebf;" vertex="1" parent="1">
          <mxGeometry x="-150" y="160" width="120" height="60" as="geometry" />
        </mxCell>
        <mxCell id="AObpnqGnu0cfo2hoO3qj-36" value="" style="shape=flexArrow;endArrow=classic;html=1;rounded=0;fillColor=#f8cecc;strokeColor=#b85450;" edge="1" parent="1">
          <mxGeometry width="50" height="50" relative="1" as="geometry">
            <mxPoint x="-320" y="391" as="sourcePoint" />
            <mxPoint x="-120" y="391" as="targetPoint" />
            <Array as="points">
              <mxPoint x="-240" y="391" />
            </Array>
          </mxGeometry>
        </mxCell>
        <mxCell id="AObpnqGnu0cfo2hoO3qj-40" value="&lt;div&gt;API Rules&lt;/div&gt;" style="rounded=1;whiteSpace=wrap;html=1;" vertex="1" parent="1">
          <mxGeometry x="-140" y="60" width="120" height="60" as="geometry" />
        </mxCell>
        <mxCell id="AObpnqGnu0cfo2hoO3qj-41" value="&lt;div&gt;API Rules&lt;/div&gt;" style="rounded=1;whiteSpace=wrap;html=1;" vertex="1" parent="1">
          <mxGeometry x="-150" y="50" width="120" height="60" as="geometry" />
        </mxCell>
        <mxCell id="AObpnqGnu0cfo2hoO3qj-42" value="" style="shape=flexArrow;endArrow=classic;html=1;rounded=0;fillColor=#d5e8d4;strokeColor=#82b366;" edge="1" parent="1">
          <mxGeometry width="50" height="50" relative="1" as="geometry">
            <mxPoint x="-60" y="391" as="sourcePoint" />
            <mxPoint y="391" as="targetPoint" />
            <Array as="points">
              <mxPoint x="20" y="391" />
            </Array>
          </mxGeometry>
        </mxCell>
        <mxCell id="AObpnqGnu0cfo2hoO3qj-43" style="edgeStyle=orthogonalEdgeStyle;rounded=0;orthogonalLoop=1;jettySize=auto;html=1;entryX=0.417;entryY=1;entryDx=0;entryDy=0;entryPerimeter=0;" edge="1" parent="1" source="AObpnqGnu0cfo2hoO3qj-33" target="AObpnqGnu0cfo2hoO3qj-40">
          <mxGeometry relative="1" as="geometry" />
        </mxCell>
        <mxCell id="AObpnqGnu0cfo2hoO3qj-44" value="watches" style="edgeLabel;html=1;align=center;verticalAlign=middle;resizable=0;points=[];" vertex="1" connectable="0" parent="AObpnqGnu0cfo2hoO3qj-43">
          <mxGeometry x="-0.15" relative="1" as="geometry">
            <mxPoint as="offset" />
          </mxGeometry>
        </mxCell>
        <mxCell id="AObpnqGnu0cfo2hoO3qj-46" value="" style="shape=flexArrow;endArrow=classic;html=1;rounded=0;fillColor=#d5e8d4;strokeColor=#82b366;" edge="1" parent="1" target="AObpnqGnu0cfo2hoO3qj-2">
          <mxGeometry width="50" height="50" relative="1" as="geometry">
            <mxPoint x="60" y="391" as="sourcePoint" />
            <mxPoint x="120" y="391" as="targetPoint" />
            <Array as="points">
              <mxPoint x="140" y="391" />
            </Array>
          </mxGeometry>
        </mxCell>
        <mxCell id="AObpnqGnu0cfo2hoO3qj-47" value="" style="shape=flexArrow;endArrow=classic;html=1;rounded=0;fillColor=#d5e8d4;strokeColor=#82b366;" edge="1" parent="1" target="AObpnqGnu0cfo2hoO3qj-4">
          <mxGeometry width="50" height="50" relative="1" as="geometry">
            <mxPoint x="240" y="391" as="sourcePoint" />
            <mxPoint x="300" y="391" as="targetPoint" />
            <Array as="points">
              <mxPoint x="320" y="391" />
            </Array>
          </mxGeometry>
        </mxCell>
      </root>
    </mxGraphModel>
  </diagram>
</mxfile>
